<svg xmlns="http://www.w3.org/2000/svg" viewBox="0 0 100 100" preserveAspectRatio="xMidYMid" width="200" height="200" style="shape-rendering: auto; display: block;">
  <g>
    <g transform="rotate(0 50 50)">
      <rect fill="#ffffff" height="12" width="6" ry="6" rx="3" y="24" x="47">
        <animate repeatCount="indefinite" begin="-0.9167s" dur="1s" keyTimes="0;1" values="1;0" attributeName="opacity" />
      </rect>
    </g>
    <g transform="rotate(30 50 50)">
      <rect fill="#ffffff" height="12" width="6" ry="6" rx="3" y="24" x="47">
        <animate repeatCount="indefinite" begin="-0.8333s" dur="1s" keyTimes="0;1" values="1;0" attributeName="opacity" />
      </rect>
    </g>
    <g transform="rotate(60 50 50)">
      <rect fill="#ffffff" height="12" width="6" ry="6" rx="3" y="24" x="47">
        <animate repeatCount="indefinite" begin="-0.75s" dur="1s" keyTimes="0;1" values="1;0" attributeName="opacity" />
      </rect>
    </g>
    <g transform="rotate(90 50 50)">
      <rect fill="#ffffff" height="12" width="6" ry="6" rx="3" y="24" x="47">
        <animate repeatCount="indefinite" begin="-0.6667s" dur="1s" keyTimes="0;1" values="1;0" attributeName="opacity" />
      </rect>
    </g>
    <g transform="rotate(120 50 50)">
      <rect fill="#ffffff" height="12" width="6" ry="6" rx="3" y="24" x="47">
        <animate repeatCount="indefinite" begin="-0.5833s" dur="1s" keyTimes="0;1" values="1;0" attributeName="opacity" />
      </rect>
    </g>
    <g transform="rotate(150 50 50)">
      <rect fill="#ffffff" height="12" width="6" ry="6" rx="3" y="24" x="47">
        <animate repeatCount="indefinite" begin="-0.5s" dur="1s" keyTimes="0;1" values="1;0" attributeName="opacity" />
      </rect>
    </g>
    <g transform="rotate(180 50 50)">
      <rect fill="#ffffff" height="12" width="6" ry="6" rx="3" y="24" x="47">
        <animate repeatCount="indefinite" begin="-0.4167s" dur="1s" keyTimes="0;1" values="1;0" attributeName="opacity" />
      </rect>
    </g>
    <g transform="rotate(210 50 50)">
      <rect fill="#ffffff" height="12" width="6" ry="6" rx="3" y="24" x="47">
        <animate repeatCount="indefinite" begin="-0.3333s" dur="1s" keyTimes="0;1" values="1;0" attributeName="opacity" />
      </rect>
    </g>
    <g transform="rotate(240 50 50)">
      <rect fill="#ffffff" height="12" width="6" ry="6" rx="3" y="24" x="47">
        <animate repeatCount="indefinite" begin="-0.25s" dur="1s" keyTimes="0;1" values="1;0" attributeName="opacity" />
      </rect>
    </g>
    <g transform="rotate(270 50 50)">
      <rect fill="#ffffff" height="12" width="6" ry="6" rx="3" y="24" x="47">
        <animate repeatCount="indefinite" begin="-0.1667s" dur="1s" keyTimes="0;1" values="1;0" attributeName="opacity" />
      </rect>
    </g>
    <g transform="rotate(300 50 50)">
      <rect fill="#ffffff" height="12" width="6" ry="6" rx="3" y="24" x="47">
        <animate repeatCount="indefinite" begin="-0.0833s" dur="1s" keyTimes="0;1" values="1;0" attributeName="opacity" />
      </rect>
    </g>
    <g transform="rotate(330 50 50)">
      <rect fill="#ffffff" height="12" width="6" ry="6" rx="3" y="24" x="47">
        <animate repeatCount="indefinite" begin="0s" dur="1s" keyTimes="0;1" values="1;0" attributeName="opacity" />
      </rect>
    </g>
  </g>
</svg>
